<svg width="22" height="21" viewBox="0 0 22 21" fill="none" xmlns="http://www.w3.org/2000/svg">
<path d="M13.773 10.5L21.195 3.07799C21.584 2.68899 21.584 2.05299 21.195 1.66399L19.836 0.304995C19.447 -0.0840054 18.811 -0.0840054 18.422 0.304995L11 7.72699L3.57799 0.304995C3.18899 -0.0840054 2.55299 -0.0840054 2.16399 0.304995L0.804995 1.66399C0.415995 2.05299 0.415995 2.68899 0.804995 3.07799L8.22699 10.5L0.805995 17.922C0.416995 18.311 0.416995 18.947 0.805995 19.336L2.16499 20.695C2.55399 21.084 3.18999 21.084 3.57899 20.695L11.001 13.273L18.423 20.695C18.812 21.084 19.448 21.084 19.837 20.695L21.196 19.336C21.585 18.947 21.585 18.311 21.196 17.922L13.773 10.5Z" fill="#EE3643"/>
</svg>
